<svg width="300" height="139" viewBox="0 0 300 139" fill="none" xmlns="http://www.w3.org/2000/svg">
<path d="M51.7498 79.2001H55.3381V83.066H51.7498V89.4893H46.9323V83.066H34.4625L34.3237 80.1319L46.7737 60.6242H51.7498V79.2001ZM39.379 79.2001H46.9323V67.1466L46.5755 67.781L39.379 79.2001Z" fill="black"/>
<path d="M96.4287 81.4826C96.2844 81.4826 96.1401 81.4276 96.03 81.3174C95.8097 81.0971 95.8097 80.7403 96.03 80.52L102.797 73.7531C103.017 73.5328 103.374 73.5328 103.594 73.7531C103.815 73.9734 103.815 74.3302 103.594 74.5505L96.8274 81.3174C96.7172 81.4276 96.5729 81.4826 96.4287 81.4826Z" fill="#333B41"/>
<path d="M103.196 81.4826C103.051 81.4826 102.907 81.4276 102.797 81.3174L96.03 74.5505C95.8097 74.3302 95.8097 73.9734 96.03 73.7531C96.2502 73.5328 96.6071 73.5328 96.8274 73.7531L103.594 80.52C103.815 80.7403 103.815 81.0971 103.594 81.3174C103.484 81.4276 103.34 81.4826 103.196 81.4826Z" fill="#333B41"/>
<path d="M1.5948 105.888V108.399H0.748939V101.985H3.11471C3.81666 101.985 4.36589 102.164 4.76239 102.522C5.16182 102.881 5.36154 103.355 5.36154 103.945C5.36154 104.568 5.16623 105.048 4.7756 105.386C4.38792 105.721 3.83135 105.888 3.1059 105.888H1.5948ZM1.5948 105.197H3.11471C3.56702 105.197 3.91359 105.091 4.15442 104.879C4.39526 104.665 4.51568 104.357 4.51568 103.954C4.51568 103.572 4.39526 103.267 4.15442 103.038C3.91359 102.809 3.58317 102.69 3.16318 102.681H1.5948V105.197ZM9.20317 108.399C9.15618 108.305 9.118 108.138 9.08863 107.897C8.70975 108.291 8.25745 108.488 7.73172 108.488C7.2618 108.488 6.87558 108.355 6.57306 108.091C6.27349 107.824 6.1237 107.486 6.1237 107.078C6.1237 106.581 6.31167 106.197 6.68761 105.923C7.06648 105.647 7.59809 105.509 8.28241 105.509H9.07541V105.135C9.07541 104.85 8.99024 104.624 8.81989 104.456C8.64954 104.286 8.39843 104.201 8.06654 104.201C7.77578 104.201 7.532 104.274 7.33522 104.421C7.13844 104.568 7.04005 104.746 7.04005 104.954H6.22062C6.22062 104.716 6.30433 104.487 6.47174 104.267C6.64208 104.044 6.87117 103.868 7.159 103.738C7.44977 103.609 7.76843 103.545 8.115 103.545C8.66423 103.545 9.0945 103.683 9.40583 103.959C9.71715 104.232 9.87869 104.609 9.89044 105.091V107.285C9.89044 107.722 9.94624 108.07 10.0578 108.329V108.399H9.20317ZM7.85067 107.778C8.10619 107.778 8.3485 107.712 8.57759 107.58C8.80667 107.448 8.97262 107.276 9.07541 107.065V106.087H8.43661C7.43802 106.087 6.93872 106.379 6.93872 106.963C6.93872 107.219 7.0239 107.418 7.19425 107.562C7.36459 107.706 7.5834 107.778 7.85067 107.778ZM11.939 103.633L11.9654 104.232C12.3296 103.774 12.8054 103.545 13.3928 103.545C14.4002 103.545 14.9083 104.113 14.9172 105.249V108.399H14.1021V105.245C14.0992 104.901 14.0199 104.647 13.8642 104.483C13.7115 104.318 13.4721 104.236 13.1461 104.236C12.8818 104.236 12.6498 104.307 12.4501 104.448C12.2503 104.589 12.0947 104.774 11.9831 105.003V108.399H11.168V103.633H11.939ZM15.9481 105.976C15.9481 105.245 16.1213 104.658 16.4679 104.214C16.8145 103.768 17.2682 103.545 17.8292 103.545C18.3873 103.545 18.8293 103.735 19.1553 104.117V101.633H19.9703V108.399H19.2214L19.1817 107.888C18.8557 108.288 18.4019 108.488 17.8204 108.488C17.2682 108.488 16.8174 108.261 16.4679 107.809C16.1213 107.357 15.9481 106.766 15.9481 106.038V105.976ZM16.7631 106.069C16.7631 106.609 16.8747 107.032 17.0979 107.338C17.3211 107.643 17.6295 107.796 18.0231 107.796C18.54 107.796 18.9174 107.564 19.1553 107.1V104.91C18.9115 104.461 18.537 104.236 18.0319 104.236C17.6324 104.236 17.3211 104.39 17.0979 104.699C16.8747 105.007 16.7631 105.464 16.7631 106.069ZM24.182 108.399C24.135 108.305 24.0968 108.138 24.0675 107.897C23.6886 108.291 23.2363 108.488 22.7106 108.488C22.2406 108.488 21.8544 108.355 21.5519 108.091C21.2523 107.824 21.1025 107.486 21.1025 107.078C21.1025 106.581 21.2905 106.197 21.6664 105.923C22.0453 105.647 22.5769 105.509 23.2613 105.509H24.0543V105.135C24.0543 104.85 23.9691 104.624 23.7987 104.456C23.6284 104.286 23.3773 104.201 23.0454 104.201C22.7546 104.201 22.5108 104.274 22.3141 104.421C22.1173 104.568 22.0189 104.746 22.0189 104.954H21.1995C21.1995 104.716 21.2832 104.487 21.4506 104.267C21.6209 104.044 21.85 103.868 22.1378 103.738C22.4286 103.609 22.7473 103.545 23.0938 103.545C23.6431 103.545 24.0733 103.683 24.3847 103.959C24.696 104.232 24.8575 104.609 24.8693 105.091V107.285C24.8693 107.722 24.9251 108.07 25.0367 108.329V108.399H24.182ZM22.8295 107.778C23.085 107.778 23.3273 107.712 23.5564 107.58C23.7855 107.448 23.9515 107.276 24.0543 107.065V106.087H23.4154C22.4169 106.087 21.9176 106.379 21.9176 106.963C21.9176 107.219 22.0027 107.418 22.1731 107.562C22.3434 107.706 22.5622 107.778 22.8295 107.778ZM28.1867 105.976C28.1867 105.245 28.3599 104.658 28.7065 104.214C29.0531 103.768 29.5068 103.545 30.0678 103.545C30.6259 103.545 31.0679 103.735 31.3939 104.117V101.633H32.2089V108.399H31.46L31.4203 107.888C31.0943 108.288 30.6405 108.488 30.059 108.488C29.5068 108.488 29.056 108.261 28.7065 107.809C28.3599 107.357 28.1867 106.766 28.1867 106.038V105.976ZM29.0017 106.069C29.0017 106.609 29.1133 107.032 29.3365 107.338C29.5597 107.643 29.8681 107.796 30.2617 107.796C30.7786 107.796 31.156 107.564 31.3939 107.1V104.91C31.1501 104.461 30.7756 104.236 30.2705 104.236C29.871 104.236 29.5597 104.39 29.3365 104.699C29.1133 105.007 29.0017 105.464 29.0017 106.069ZM34.3632 108.399H33.5482V103.633H34.3632V108.399ZM33.4821 102.368C33.4821 102.236 33.5218 102.124 33.6011 102.033C33.6833 101.942 33.8037 101.897 33.9623 101.897C34.1209 101.897 34.2413 101.942 34.3236 102.033C34.4058 102.124 34.4469 102.236 34.4469 102.368C34.4469 102.5 34.4058 102.611 34.3236 102.699C34.2413 102.787 34.1209 102.831 33.9623 102.831C33.8037 102.831 33.6833 102.787 33.6011 102.699C33.5218 102.611 33.4821 102.5 33.4821 102.368ZM37.6498 108.488C37.0036 108.488 36.4779 108.276 36.0726 107.853C35.6673 107.427 35.4646 106.859 35.4646 106.148V105.998C35.4646 105.526 35.5542 105.104 35.7333 104.734C35.9154 104.361 36.168 104.07 36.4911 103.862C36.8171 103.65 37.1695 103.545 37.5484 103.545C38.1681 103.545 38.6498 103.749 38.9934 104.157C39.3371 104.565 39.5089 105.15 39.5089 105.91V106.25H36.2796C36.2914 106.719 36.428 107.1 36.6893 107.391C36.9537 107.678 37.2885 107.822 37.6938 107.822C37.9816 107.822 38.2254 107.764 38.4251 107.646C38.6248 107.529 38.7996 107.373 38.9494 107.179L39.4472 107.567C39.0478 108.181 38.4486 108.488 37.6498 108.488ZM37.5484 104.214C37.2195 104.214 36.9434 104.335 36.7202 104.575C36.497 104.813 36.3589 105.148 36.3061 105.58H38.6939V105.518C38.6704 105.104 38.5588 104.784 38.359 104.558C38.1593 104.329 37.8891 104.214 37.5484 104.214ZM41.5619 102.478V103.633H42.4518V104.263H41.5619V107.219C41.5619 107.41 41.6015 107.554 41.6808 107.65C41.7601 107.744 41.8952 107.791 42.0861 107.791C42.1801 107.791 42.3093 107.774 42.4738 107.739V108.399C42.2594 108.458 42.0509 108.488 41.8482 108.488C41.484 108.488 41.2094 108.377 41.0244 108.157C40.8394 107.937 40.7468 107.624 40.7468 107.219V104.263H39.879V103.633H40.7468V102.478H41.5619ZM46.0467 108.399V104.263H45.2934V103.633H46.0467V103.144C46.0467 102.633 46.1833 102.238 46.4564 101.959C46.7296 101.679 47.1158 101.54 47.6151 101.54C47.8031 101.54 47.9896 101.565 48.1746 101.615L48.1305 102.276C47.9925 102.249 47.8456 102.236 47.69 102.236C47.4256 102.236 47.2215 102.314 47.0776 102.47C46.9337 102.622 46.8617 102.843 46.8617 103.13V103.633H47.8794V104.263H46.8617V108.399H46.0467ZM48.5667 105.972C48.5667 105.505 48.6577 105.085 48.8398 104.712C49.0249 104.339 49.2804 104.051 49.6064 103.848C49.9353 103.646 50.3098 103.545 50.7298 103.545C51.3789 103.545 51.9031 103.769 52.3026 104.219C52.705 104.668 52.9061 105.266 52.9061 106.012V106.069C52.9061 106.533 52.8166 106.95 52.6374 107.32C52.4612 107.687 52.2071 107.974 51.8752 108.179C51.5463 108.385 51.1674 108.488 50.7386 108.488C50.0925 108.488 49.5682 108.263 49.1658 107.813C48.7664 107.364 48.5667 106.769 48.5667 106.029V105.972ZM49.3861 106.069C49.3861 106.598 49.508 107.022 49.7518 107.342C49.9985 107.662 50.3274 107.822 50.7386 107.822C51.1527 107.822 51.4817 107.661 51.7255 107.338C51.9692 107.012 52.0911 106.556 52.0911 105.972C52.0911 105.449 51.9663 105.026 51.7166 104.703C51.4699 104.377 51.141 104.214 50.7298 104.214C50.3274 104.214 50.0029 104.374 49.7562 104.694C49.5095 105.014 49.3861 105.473 49.3861 106.069ZM56.2323 104.364C56.109 104.343 55.9753 104.333 55.8314 104.333C55.2969 104.333 54.9342 104.561 54.7433 105.016V108.399H53.9282V103.633H54.7212L54.7344 104.183C55.0017 103.757 55.3806 103.545 55.8711 103.545C56.0297 103.545 56.1501 103.565 56.2323 103.606V104.364ZM60.3295 102.478V103.633H61.2194V104.263H60.3295V107.219C60.3295 107.41 60.3691 107.554 60.4484 107.65C60.5277 107.744 60.6628 107.791 60.8537 107.791C60.9477 107.791 61.077 107.774 61.2414 107.739V108.399C61.027 108.458 60.8185 108.488 60.6158 108.488C60.2516 108.488 59.977 108.377 59.792 108.157C59.607 107.937 59.5145 107.624 59.5145 107.219V104.263H58.6466V103.633H59.5145V102.478H60.3295ZM62.9904 104.21C63.3517 103.766 63.8216 103.545 64.4002 103.545C65.4076 103.545 65.9157 104.113 65.9245 105.249V108.399H65.1095V105.245C65.1066 104.901 65.0273 104.647 64.8716 104.483C64.7189 104.318 64.4795 104.236 64.1535 104.236C63.8892 104.236 63.6571 104.307 63.4574 104.448C63.2577 104.589 63.102 104.774 62.9904 105.003V108.399H62.1754V101.633H62.9904V104.21ZM69.1229 108.488C68.4768 108.488 67.9511 108.276 67.5458 107.853C67.1404 107.427 66.9378 106.859 66.9378 106.148V105.998C66.9378 105.526 67.0274 105.104 67.2065 104.734C67.3886 104.361 67.6412 104.07 67.9643 103.862C68.2903 103.65 68.6427 103.545 69.0216 103.545C69.6413 103.545 70.123 103.749 70.4666 104.157C70.8103 104.565 70.9821 105.15 70.9821 105.91V106.25H67.7528C67.7646 106.719 67.9011 107.1 68.1625 107.391C68.4269 107.678 68.7617 107.822 69.167 107.822C69.4548 107.822 69.6986 107.764 69.8983 107.646C70.098 107.529 70.2728 107.373 70.4226 107.179L70.9204 107.567C70.521 108.181 69.9218 108.488 69.1229 108.488ZM69.0216 104.214C68.6927 104.214 68.4166 104.335 68.1934 104.575C67.9702 104.813 67.8321 105.148 67.7792 105.58H70.1671V105.518C70.1436 105.104 70.032 104.784 69.8322 104.558C69.6325 104.329 69.3623 104.214 69.0216 104.214ZM73.969 105.976C73.969 105.245 74.1423 104.658 74.4889 104.214C74.8355 103.768 75.2892 103.545 75.8502 103.545C76.4082 103.545 76.8503 103.735 77.1763 104.117V101.633H77.9913V108.399H77.2424L77.2027 107.888C76.8767 108.288 76.4229 108.488 75.8414 108.488C75.2892 108.488 74.8384 108.261 74.4889 107.809C74.1423 107.357 73.969 106.766 73.969 106.038V105.976ZM74.7841 106.069C74.7841 106.609 74.8957 107.032 75.1189 107.338C75.3421 107.643 75.6505 107.796 76.044 107.796C76.561 107.796 76.9384 107.564 77.1763 107.1V104.91C76.9325 104.461 76.558 104.236 76.0529 104.236C75.6534 104.236 75.3421 104.39 75.1189 104.699C74.8957 105.007 74.7841 105.464 74.7841 106.069ZM82.203 108.399C82.156 108.305 82.1178 108.138 82.0885 107.897C81.7096 108.291 81.2573 108.488 80.7315 108.488C80.2616 108.488 79.8754 108.355 79.5729 108.091C79.2733 107.824 79.1235 107.486 79.1235 107.078C79.1235 106.581 79.3115 106.197 79.6874 105.923C80.0663 105.647 80.5979 105.509 81.2822 105.509H82.0752V105.135C82.0752 104.85 81.9901 104.624 81.8197 104.456C81.6494 104.286 81.3983 104.201 81.0664 104.201C80.7756 104.201 80.5318 104.274 80.335 104.421C80.1383 104.568 80.0399 104.746 80.0399 104.954H79.2204C79.2204 104.716 79.3041 104.487 79.4716 104.267C79.6419 104.044 79.871 103.868 80.1588 103.738C80.4496 103.609 80.7683 103.545 81.1148 103.545C81.6641 103.545 82.0943 103.683 82.4057 103.959C82.717 104.232 82.8785 104.609 82.8903 105.091V107.285C82.8903 107.722 82.9461 108.07 83.0577 108.329V108.399H82.203ZM80.8505 107.778C81.106 107.778 81.3483 107.712 81.5774 107.58C81.8065 107.448 81.9724 107.276 82.0752 107.065V106.087H81.4364C80.4378 106.087 79.9385 106.379 79.9385 106.963C79.9385 107.219 80.0237 107.418 80.1941 107.562C80.3644 107.706 80.5832 107.778 80.8505 107.778ZM85.6569 107.206L86.7671 103.633H87.6394L85.723 109.135C85.4264 109.928 84.955 110.325 84.3088 110.325L84.1546 110.311L83.8507 110.254V109.593L84.0709 109.611C84.347 109.611 84.5614 109.555 84.7142 109.444C84.8698 109.332 84.9976 109.128 85.0974 108.831L85.2781 108.347L83.5775 103.633H84.4674L85.6569 107.206ZM87.9126 107.972C87.9126 107.831 87.9537 107.714 88.0359 107.62C88.1211 107.526 88.2474 107.479 88.4148 107.479C88.5822 107.479 88.7085 107.526 88.7937 107.62C88.8818 107.714 88.9258 107.831 88.9258 107.972C88.9258 108.107 88.8818 108.22 88.7937 108.311C88.7085 108.402 88.5822 108.448 88.4148 108.448C88.2474 108.448 88.1211 108.402 88.0359 108.311C87.9537 108.22 87.9126 108.107 87.9126 107.972Z" fill="#333B41"/>
<g clip-path="url(#clip0_153_183)">
<path d="M280.161 110.81C286.278 98.979 291.255 84.4706 291.255 69.008C291.255 61.241 288.829 52.4118 284.765 45.3906C281.211 39.251 274.622 31.3188 263.402 28.3943C249.202 24.6937 234.815 28.1448 223.255 30.9181C219.077 31.9203 215.131 32.8668 211.751 33.3349C204.171 34.3838 196.162 34.2301 189.278 33.9642H189.274C188.196 33.9225 187.144 33.8783 186.128 33.8355C181.779 33.6519 171.762 33.4758 171.762 33.4758C171.215 31.152 169.969 29.2482 168.413 28.3694C167.754 28.0032 167.035 27.8176 166.308 27.8262C165.581 27.8348 164.864 28.0373 164.212 28.4189C162.072 29.5737 161.046 32.1395 161.531 35.0362C158.103 36.796 154.754 40.2988 152.722 43.0532C150.978 45.418 149.499 49.1518 148.068 52.7626C146.612 56.4401 145.105 60.2427 143.598 61.7782C143.229 62.151 142.903 62.5799 142.627 63.0538C142.623 63.0538 142.618 63.0506 142.613 63.0496C142.298 62.9739 141.973 62.9776 141.659 63.0604C141.345 63.1432 141.049 63.3033 140.79 63.5303C140.531 63.7574 140.315 64.0464 140.155 64.3789C139.995 64.7114 139.895 65.08 139.862 65.4611C139.829 65.8422 139.863 66.2273 139.962 66.5918C140.061 66.9563 140.223 67.2921 140.437 67.5777C140.652 67.8633 140.914 68.0924 141.207 68.2502C141.5 68.408 141.817 68.4912 142.139 68.4943C142.411 69.5046 142.778 70.4749 143.234 71.3864C146.268 77.608 151.066 81.4758 155.299 84.8877C157.633 86.7687 159.837 88.5456 161.545 90.5299C162.826 92.0707 163.94 93.7963 164.862 95.6666C164.872 95.6905 164.885 95.7108 164.896 95.734C166.63 99.1897 168.004 103.406 168.261 107.433C168.586 112.52 169.354 126.257 169.595 130.596C168.761 130.912 167.979 131.396 167.282 132.027C166.763 132.495 166.383 133.146 166.196 133.888C166.008 134.629 166.024 135.423 166.24 136.153C166.445 136.899 166.843 137.547 167.378 138.005C167.913 138.463 168.556 138.706 169.214 138.7H183.392C183.849 138.701 184.3 138.582 184.714 138.352C185.128 138.123 185.495 137.788 185.789 137.371C188.925 132.928 196.746 121.478 201.696 111.09C220.857 111.067 233.944 110.239 241.577 108.558C242.714 117.124 244.216 126.883 244.765 130.403C244.291 130.667 243.843 130.992 243.429 131.373C242.862 131.894 242.445 132.613 242.239 133.43C242.032 134.247 242.045 135.121 242.276 135.929C242.507 136.737 242.944 137.438 243.526 137.935C244.109 138.432 244.807 138.699 245.523 138.699H258.812C259.599 138.698 260.361 138.377 260.972 137.788C265.355 133.552 273.374 123.875 280.061 111.004C280.098 110.942 280.131 110.878 280.161 110.81ZM186.507 70.1004C182.22 80.8045 174.674 89.4632 166.637 92.9949C165.714 91.2744 164.637 89.678 163.426 88.2336C161.546 86.0485 159.245 84.1943 156.809 82.2306C152.62 78.8536 148.287 75.3619 145.564 69.7746C143.905 66.3737 144.525 65.0568 145.349 64.2175C147.295 62.2346 148.854 58.2993 150.505 54.1324C151.855 50.7223 153.252 47.1963 154.746 45.1717C156.554 42.7199 159.769 39.3294 162.88 37.8427C163.186 37.6962 163.46 37.4712 163.685 37.1839C165.385 40.1458 169.436 39.7091 170.453 37.012C170.524 36.8183 170.576 36.6157 170.61 36.4081C174.891 37.0716 181.713 36.8591 186.033 37.0424C186.766 37.0734 187.521 37.1047 188.286 37.1354C191.437 47.6787 190.815 59.3418 186.507 70.1004ZM269.129 99.4892C266.619 98.9334 254.16 96.6884 243.711 103.986C243.214 99.9612 242.875 96.6146 242.875 94.9789C242.875 94.5534 242.734 94.1453 242.481 93.8445C242.229 93.5436 241.886 93.3746 241.529 93.3746C241.172 93.3746 240.829 93.5436 240.577 93.8445C240.324 94.1453 240.183 94.5534 240.183 94.9789C240.183 96.8784 240.59 100.793 241.166 105.386C234.647 106.838 223.896 107.645 208.486 107.837C211.554 105.617 214 102.431 215.786 98.287C218.274 92.5197 219.374 85.0053 218.966 76.5562C218.507 67.0372 212.368 54.2154 207.435 43.9142C206.293 41.5288 205.199 39.2438 204.288 37.2217C206.882 37.0951 209.491 36.8776 212.061 36.5218C215.552 36.0391 219.551 35.0794 223.785 34.0619C235.098 31.3477 249.178 27.9697 262.825 31.5274C281.575 36.416 288.562 57.1114 288.562 69.008C288.562 82.7005 284.479 95.6399 279.21 106.511C277.663 103.755 274.44 100.666 269.129 99.4892Z" fill="black"/>
<path d="M157.896 50.6009C152.476 48.1058 149.325 55.1133 152.773 59.2286C154.659 61.4777 156.452 66.6894 160.55 66.2572C167.06 65.5719 166.461 54.5405 157.896 50.6009ZM155.441 57.3811C155.119 57.3811 154.805 57.266 154.538 57.0504C154.271 56.8348 154.062 56.5284 153.939 56.1699C153.817 55.8114 153.784 55.4169 153.847 55.0363C153.91 54.6557 154.064 54.3061 154.292 54.0317C154.519 53.7573 154.808 53.5704 155.124 53.4947C155.439 53.419 155.766 53.4579 156.062 53.6064C156.359 53.7549 156.613 54.0064 156.792 54.329C156.97 54.6517 157.065 55.031 157.065 55.4191C157.065 55.9394 156.894 56.4384 156.589 56.8063C156.285 57.1743 155.872 57.381 155.441 57.3811Z" fill="black"/>
<path d="M216.164 114.161C216.147 114.082 216.109 114.012 216.054 113.962C216 113.912 215.933 113.886 215.864 113.887C214.394 113.905 206.616 114.001 203.318 114.017C203.267 114.016 203.217 114.032 203.173 114.061C203.128 114.09 203.091 114.132 203.064 114.183C200.944 118.16 197.226 124.35 194.77 128.379C194.729 128.445 194.71 128.526 194.713 128.607C194.717 128.689 194.745 128.767 194.791 128.827L198.223 133.368L198.186 133.433C198.174 133.458 198.159 133.483 198.146 133.508C197.879 134.026 197.733 134.619 197.723 135.225C197.714 135.832 197.842 136.431 198.093 136.959C198.345 137.488 198.712 137.929 199.155 138.235C199.599 138.541 200.104 138.702 200.617 138.701H215.211C215.597 138.701 215.979 138.61 216.334 138.432C216.69 138.255 217.012 137.996 217.282 137.67C217.551 137.343 217.763 136.957 217.904 136.533C218.045 136.108 218.113 135.655 218.103 135.2C218.054 132.852 217.926 129.167 217.608 125.167C217.345 121.463 216.863 117.785 216.164 114.161Z" fill="black"/>
<path d="M288.114 100.962C288.095 100.893 288.058 100.833 288.01 100.79C287.961 100.747 287.903 100.723 287.843 100.721C287.783 100.719 287.724 100.739 287.674 100.778C287.623 100.818 287.584 100.875 287.561 100.942C287.164 102.115 286.718 103.263 286.225 104.382C282.107 113.749 277.112 122.509 271.34 130.487C271.291 130.554 271.264 130.641 271.266 130.731C271.267 130.82 271.296 130.906 271.347 130.971L272.345 132.249C272.052 132.67 271.806 133.137 271.614 133.636C271.407 134.189 271.319 134.795 271.357 135.4C271.395 136.005 271.559 136.588 271.833 137.095C272.076 137.578 272.416 137.978 272.821 138.259C273.226 138.54 273.683 138.692 274.149 138.702H289.299C289.673 138.702 290.044 138.611 290.388 138.435C290.733 138.258 291.045 138 291.307 137.675C291.568 137.35 291.773 136.965 291.91 136.543C292.047 136.12 292.113 135.669 292.104 135.215C291.954 127.909 291.259 111.718 288.114 100.962Z" fill="black"/>
</g>
<defs>
<clipPath id="clip0_153_183">
<rect width="160.15" height="138.722" fill="white" transform="translate(139.85 0.27832)"/>
</clipPath>
</defs>
</svg>
